<svg width="174" height="48" viewBox="0 0 174 48" fill="none" xmlns="http://www.w3.org/2000/svg">
<rect x="0.5" y="0.5" width="173" height="47" rx="23.5" fill="#18181B"/>
<path d="M42.1537 23.7408C42.1189 19.8732 45.3205 17.9916 45.4669 17.904C43.6537 15.2604 40.8433 14.8992 39.8557 14.8704C37.4953 14.622 35.2057 16.2828 34.0033 16.2828C32.7769 16.2828 30.9253 14.8944 28.9297 14.9352C26.3617 14.9748 23.9593 16.4616 22.6417 18.7704C19.9225 23.478 21.9505 30.396 24.5557 34.2012C25.8589 36.0648 27.3817 38.1456 29.3749 38.0724C31.3249 37.992 32.0533 36.8292 34.4065 36.8292C36.7381 36.8292 37.4221 38.0724 39.4549 38.0256C41.5477 37.992 42.8653 36.1536 44.1229 34.2732C45.6289 32.1372 46.2337 30.0336 46.2577 29.9256C46.2085 29.9088 42.1933 28.3764 42.1537 23.7408Z" fill="white"/>
<path d="M38.3137 12.3672C39.3625 11.0556 40.0801 9.27122 39.8809 7.46042C38.3629 7.52762 36.4645 8.51042 35.3713 9.79322C34.4041 10.9236 33.5401 12.7764 33.7633 14.5188C35.4685 14.646 37.2193 13.6584 38.3137 12.3672Z" fill="white"/>
<path d="M70.374 37.8048H67.6488L66.156 33.114H60.9672L59.5452 37.8048H56.892L62.0328 21.8352H65.208L70.374 37.8048ZM65.706 31.146L64.356 26.976C64.2132 26.55 63.9456 25.5468 63.5508 23.9676H63.5028C63.3456 24.6468 63.0924 25.65 62.7444 26.976L61.4184 31.146H65.706Z" fill="white"/>
<path d="M83.5943 31.9056C83.5943 33.864 83.0651 35.412 82.0067 36.5484C81.0587 37.56 79.8815 38.0652 78.4763 38.0652C76.9595 38.0652 75.8699 37.5204 75.2063 36.4308H75.1583V42.4968H72.5999V30.0804C72.5999 28.8492 72.5675 27.5856 72.5051 26.2896H74.7551L74.8979 28.1148H74.9459C75.7991 26.7396 77.0939 26.0532 78.8315 26.0532C80.1899 26.0532 81.3239 26.5896 82.2311 27.6636C83.1407 28.7388 83.5943 30.1524 83.5943 31.9056ZM80.9879 31.9992C80.9879 30.8784 80.7359 29.9544 80.2295 29.2272C79.6763 28.4688 78.9335 28.0896 78.0023 28.0896C77.3711 28.0896 76.7975 28.3008 76.2851 28.7172C75.7715 29.1372 75.4355 29.6856 75.2783 30.3648C75.1991 30.6816 75.1595 30.9408 75.1595 31.1448V33.0648C75.1595 33.9024 75.4163 34.6092 75.9299 35.1864C76.4435 35.7636 77.1107 36.0516 77.9315 36.0516C78.8951 36.0516 79.6451 35.6796 80.1815 34.938C80.7191 34.1952 80.9879 33.216 80.9879 31.9992Z" fill="white"/>
<path d="M96.8388 31.9056C96.8388 33.864 96.3096 35.412 95.25 36.5484C94.3032 37.56 93.1259 38.0652 91.7207 38.0652C90.2039 38.0652 89.1143 37.5204 88.4519 36.4308H88.4039V42.4968H85.8455V30.0804C85.8455 28.8492 85.8131 27.5856 85.7507 26.2896H88.0007L88.1435 28.1148H88.1915C89.0435 26.7396 90.3383 26.0532 92.0771 26.0532C93.4344 26.0532 94.5684 26.5896 95.478 27.6636C96.384 28.7388 96.8388 30.1524 96.8388 31.9056ZM94.2324 31.9992C94.2324 30.8784 93.9791 29.9544 93.4727 29.2272C92.9195 28.4688 92.1791 28.0896 91.2467 28.0896C90.6143 28.0896 90.0419 28.3008 89.5283 28.7172C89.0147 29.1372 88.6799 29.6856 88.5227 30.3648C88.4447 30.6816 88.4039 30.9408 88.4039 31.1448V33.0648C88.4039 33.9024 88.6607 34.6092 89.1719 35.1864C89.6855 35.7624 90.3527 36.0516 91.1759 36.0516C92.1395 36.0516 92.8896 35.6796 93.426 34.938C93.9636 34.1952 94.2324 33.216 94.2324 31.9992Z" fill="white"/>
<path d="M111.647 33.3264C111.647 34.6848 111.175 35.79 110.228 36.6432C109.188 37.5756 107.74 38.0412 105.878 38.0412C104.16 38.0412 102.782 37.71 101.74 37.0464L102.332 34.914C103.456 35.5932 104.688 35.934 106.031 35.934C106.994 35.934 107.744 35.7156 108.283 35.2812C108.82 34.8468 109.087 34.2636 109.087 33.5364C109.087 32.8884 108.866 32.3424 108.424 31.8996C107.983 31.4568 107.248 31.0452 106.22 30.6648C103.424 29.622 102.028 28.0944 102.028 26.0856C102.028 24.7728 102.517 23.6964 103.498 22.8588C104.474 22.02 105.778 21.6012 107.407 21.6012C108.86 21.6012 110.068 21.8544 111.031 22.3596L110.392 24.4452C109.492 23.9556 108.474 23.7108 107.335 23.7108C106.435 23.7108 105.732 23.9328 105.228 24.3744C104.802 24.7692 104.588 25.2504 104.588 25.8204C104.588 26.4516 104.832 26.9736 105.322 27.384C105.748 27.7632 106.522 28.1736 107.645 28.6164C109.019 29.1696 110.028 29.8164 110.677 30.558C111.324 31.2972 111.647 32.2224 111.647 33.3264Z" fill="white"/>
<path d="M120.106 28.2096H117.286V33.8004C117.286 35.2224 117.782 35.9328 118.778 35.9328C119.236 35.9328 119.615 35.8932 119.915 35.814L119.986 37.7568C119.482 37.9452 118.818 38.04 117.996 38.04C116.986 38.04 116.196 37.7316 115.626 37.116C115.058 36.4992 114.773 35.4648 114.773 34.0116V28.2072H113.093V26.2872H114.773V24.1788L117.286 23.4204V26.2872H120.106V28.2096Z" fill="white"/>
<path d="M132.829 31.9524C132.829 33.7224 132.323 35.1756 131.312 36.312C130.253 37.482 128.846 38.0652 127.093 38.0652C125.404 38.0652 124.058 37.5048 123.055 36.384C122.052 35.2632 121.55 33.8484 121.55 32.1432C121.55 30.3588 122.066 28.8972 123.102 27.7608C124.135 26.6232 125.53 26.0544 127.283 26.0544C128.972 26.0544 130.332 26.6148 131.358 27.7368C132.34 28.8252 132.829 30.2304 132.829 31.9524ZM130.175 32.0352C130.175 30.9732 129.948 30.0624 129.488 29.3028C128.952 28.3836 128.185 27.9252 127.192 27.9252C126.163 27.9252 125.382 28.3848 124.846 29.3028C124.386 30.0636 124.159 30.9888 124.159 32.0832C124.159 33.1452 124.386 34.056 124.846 34.8144C125.399 35.7336 126.172 36.192 127.169 36.192C128.146 36.192 128.912 35.724 129.466 34.7904C129.937 34.0164 130.175 33.096 130.175 32.0352Z" fill="white"/>
<path d="M141.145 28.5396C140.892 28.4928 140.622 28.4688 140.339 28.4688C139.439 28.4688 138.743 28.8084 138.253 29.4888C137.827 30.0888 137.614 30.8472 137.614 31.7628V37.8048H135.056L135.08 29.916C135.08 28.5888 135.048 27.3804 134.984 26.2908H137.213L137.306 28.494H137.377C137.647 27.7368 138.073 27.1272 138.656 26.67C139.226 26.2584 139.842 26.0532 140.506 26.0532C140.742 26.0532 140.956 26.07 141.145 26.1V28.5396Z" fill="white"/>
<path d="M152.587 31.5024C152.587 31.9608 152.557 32.3472 152.494 32.6628H144.818C144.848 33.8004 145.219 34.6704 145.932 35.2704C146.579 35.8068 147.415 36.0756 148.442 36.0756C149.579 36.0756 150.616 35.8944 151.548 35.5308L151.949 37.3068C150.859 37.782 149.573 38.0184 148.088 38.0184C146.303 38.0184 144.901 37.4928 143.881 36.4428C142.864 35.3928 142.354 33.9828 142.354 32.214C142.354 30.4776 142.828 29.0316 143.777 27.8784C144.77 26.6472 146.113 26.0316 147.803 26.0316C149.462 26.0316 150.719 26.6472 151.572 27.8784C152.248 28.8564 152.587 30.066 152.587 31.5024ZM150.148 30.8388C150.164 30.0804 149.998 29.4252 149.651 28.872C149.208 28.1604 148.528 27.8052 147.612 27.8052C146.776 27.8052 146.095 28.152 145.576 28.848C145.15 29.4012 144.896 30.0648 144.818 30.8376H150.148V30.8388Z" fill="white"/>
<path d="M64.86 12.0108C64.86 13.4232 64.4364 14.4864 63.5904 15.2004C62.8069 15.8592 61.6933 16.1892 60.2509 16.1892C59.5357 16.1892 58.9237 16.158 58.4113 16.0956V8.37838C59.0797 8.27038 59.7997 8.21518 60.5773 8.21518C61.9513 8.21518 62.9868 8.51398 63.6852 9.11158C64.4676 9.78718 64.86 10.7532 64.86 12.0108ZM63.534 12.0456C63.534 11.13 63.2917 10.428 62.8069 9.93838C62.3221 9.44998 61.6141 9.20518 60.6817 9.20518C60.2857 9.20518 59.9485 9.23158 59.6689 9.28678V15.1536C59.8237 15.1776 60.1069 15.1884 60.5185 15.1884C61.4809 15.1884 62.2237 14.9208 62.7469 14.3856C63.2701 13.8504 63.534 13.0704 63.534 12.0456Z" fill="white"/>
<path d="M71.8909 13.2444C71.8909 14.1144 71.6425 14.8272 71.1457 15.3864C70.6249 15.9612 69.9349 16.248 69.0733 16.248C68.2429 16.248 67.5817 15.9732 67.0885 15.4212C66.5965 14.8704 66.3505 14.1756 66.3505 13.338C66.3505 12.462 66.6037 11.7432 67.1125 11.1852C67.6213 10.6272 68.3053 10.3476 69.1669 10.3476C69.9973 10.3476 70.6645 10.6224 71.1697 11.1732C71.6497 11.7084 71.8909 12.3996 71.8909 13.2444ZM70.5865 13.2852C70.5865 12.7632 70.4737 12.3156 70.2493 11.9424C69.9853 11.4912 69.6097 11.2656 69.1213 11.2656C68.6161 11.2656 68.2321 11.4912 67.9681 11.9424C67.7425 12.3156 67.6309 12.7704 67.6309 13.308C67.6309 13.83 67.7437 14.2776 67.9681 14.6508C68.2405 15.102 68.6197 15.3276 69.1093 15.3276C69.5893 15.3276 69.9661 15.0984 70.2373 14.6388C70.4701 14.2584 70.5865 13.8072 70.5865 13.2852Z" fill="white"/>
<path d="M81.3181 10.4628L79.5481 16.1196H78.3961L77.6629 13.6632C77.4769 13.05 77.3257 12.4404 77.2081 11.8356H77.1853C77.0761 12.4572 76.9249 13.0656 76.7305 13.6632L75.9517 16.1196H74.7865L73.1221 10.4628H74.4145L75.0541 13.152C75.2089 13.788 75.3361 14.394 75.4381 14.9676H75.4609C75.5545 14.4948 75.7093 13.8924 75.9277 13.164L76.7305 10.464H77.7553L78.5245 13.1064C78.7105 13.7508 78.8617 14.3712 78.9781 14.9688H79.0129C79.0981 14.3868 79.2265 13.7664 79.3969 13.1064L80.0833 10.464H81.3181V10.4628Z" fill="white"/>
<path d="M87.8377 16.1196H86.5801V12.8796C86.5801 11.8812 86.2009 11.382 85.4401 11.382C85.0669 11.382 84.7657 11.5188 84.5317 11.7936C84.3001 12.0684 84.1825 12.3924 84.1825 12.7632V16.1184H82.9249V12.0792C82.9249 11.5824 82.9093 11.0436 82.8793 10.4604H83.9845L84.0433 11.3448H84.0781C84.2245 11.07 84.4429 10.8432 84.7297 10.662C85.0705 10.4508 85.4521 10.344 85.8697 10.344C86.3977 10.344 86.8369 10.5144 87.1861 10.8564C87.6205 11.2752 87.8377 11.9004 87.8377 12.7308V16.1196Z" fill="white"/>
<path d="M91.3056 16.1196H90.0492V7.86719H91.3056V16.1196Z" fill="white"/>
<path d="M98.7097 13.2444C98.7097 14.1144 98.4613 14.8272 97.9645 15.3864C97.4437 15.9612 96.7525 16.248 95.8921 16.248C95.0605 16.248 94.3993 15.9732 93.9073 15.4212C93.4153 14.8704 93.1693 14.1756 93.1693 13.338C93.1693 12.462 93.4225 11.7432 93.9313 11.1852C94.4401 10.6272 95.1241 10.3476 95.9845 10.3476C96.8161 10.3476 97.4821 10.6224 97.9885 11.1732C98.4685 11.7084 98.7097 12.3996 98.7097 13.2444ZM97.4041 13.2852C97.4041 12.7632 97.2913 12.3156 97.0669 11.9424C96.8041 11.4912 96.4273 11.2656 95.9401 11.2656C95.4337 11.2656 95.0497 11.4912 94.7869 11.9424C94.5613 12.3156 94.4497 12.7704 94.4497 13.308C94.4497 13.83 94.5625 14.2776 94.7869 14.6508C95.0593 15.102 95.4385 15.3276 95.9281 15.3276C96.4081 15.3276 96.7837 15.0984 97.0549 14.6388C97.2889 14.2584 97.4041 13.8072 97.4041 13.2852Z" fill="white"/>
<path d="M104.796 16.1196H103.667L103.573 15.468H103.539C103.152 15.9876 102.601 16.248 101.886 16.248C101.352 16.248 100.92 16.0764 100.595 15.7356C100.3 15.426 100.152 15.0408 100.152 14.5836C100.152 13.8924 100.44 13.3656 101.02 13.0008C101.598 12.636 102.412 12.4572 103.459 12.4656V12.36C103.459 11.6148 103.068 11.2428 102.285 11.2428C101.727 11.2428 101.235 11.3832 100.81 11.6616L100.554 10.836C101.08 10.5108 101.729 10.3476 102.495 10.3476C103.973 10.3476 104.715 11.1276 104.715 12.6876V14.7708C104.715 15.336 104.742 15.786 104.796 16.1196ZM103.491 14.1756V13.3032C102.103 13.2792 101.41 13.6596 101.41 14.4432C101.41 14.7384 101.489 14.9592 101.651 15.1068C101.813 15.2544 102.019 15.3276 102.265 15.3276C102.541 15.3276 102.799 15.24 103.035 15.066C103.271 14.8908 103.416 14.6688 103.47 14.3964C103.483 14.3352 103.491 14.2608 103.491 14.1756Z" fill="white"/>
<path d="M111.942 16.1196H110.826L110.767 15.2112H110.732C110.376 15.9024 109.769 16.248 108.916 16.248C108.234 16.248 107.666 15.9804 107.216 15.4452C106.766 14.91 106.542 14.2152 106.542 13.362C106.542 12.4464 106.786 11.7048 107.275 11.1384C107.749 10.6104 108.33 10.3464 109.021 10.3464C109.781 10.3464 110.312 10.602 110.615 11.1144H110.639V7.86719H111.898V14.5956C111.898 15.1464 111.912 15.654 111.942 16.1196ZM110.639 13.734V12.7908C110.639 12.6276 110.627 12.4956 110.604 12.3948C110.533 12.0924 110.381 11.838 110.149 11.6328C109.915 11.4276 109.633 11.3244 109.308 11.3244C108.839 11.3244 108.472 11.5104 108.202 11.8836C107.934 12.2568 107.798 12.7332 107.798 13.3152C107.798 13.8744 107.927 14.328 108.185 14.6772C108.457 15.0492 108.824 15.2352 109.284 15.2352C109.697 15.2352 110.027 15.0804 110.278 14.7696C110.52 14.4828 110.639 14.1372 110.639 13.734Z" fill="white"/>
<path d="M122.698 13.2444C122.698 14.1144 122.449 14.8272 121.953 15.3864C121.432 15.9612 120.743 16.248 119.88 16.248C119.051 16.248 118.39 15.9732 117.895 15.4212C117.403 14.8704 117.157 14.1756 117.157 13.338C117.157 12.462 117.411 11.7432 117.919 11.1852C118.428 10.6272 119.112 10.3476 119.975 10.3476C120.804 10.3476 121.473 10.6224 121.977 11.1732C122.457 11.7084 122.698 12.3996 122.698 13.2444ZM121.395 13.2852C121.395 12.7632 121.282 12.3156 121.057 11.9424C120.792 11.4912 120.418 11.2656 119.928 11.2656C119.424 11.2656 119.04 11.4912 118.775 11.9424C118.549 12.3156 118.438 12.7704 118.438 13.308C118.438 13.83 118.551 14.2776 118.775 14.6508C119.047 15.102 119.427 15.3276 119.916 15.3276C120.396 15.3276 120.774 15.0984 121.045 14.6388C121.277 14.2584 121.395 13.8072 121.395 13.2852Z" fill="white"/>
<path d="M129.46 16.1196H128.203V12.8796C128.203 11.8812 127.824 11.382 127.062 11.382C126.689 11.382 126.388 11.5188 126.155 11.7936C125.922 12.0684 125.806 12.3924 125.806 12.7632V16.1184H124.547V12.0792C124.547 11.5824 124.532 11.0436 124.502 10.4604H125.606L125.665 11.3448H125.7C125.848 11.07 126.066 10.8432 126.352 10.662C126.694 10.4508 127.074 10.344 127.493 10.344C128.02 10.344 128.459 10.5144 128.808 10.8564C129.244 11.2752 129.46 11.9004 129.46 12.7308V16.1196Z" fill="white"/>
<path d="M137.923 11.4048H136.538V14.1528C136.538 14.8512 136.784 15.2004 137.272 15.2004C137.497 15.2004 137.684 15.1812 137.832 15.1416L137.864 16.0956C137.616 16.1892 137.29 16.236 136.888 16.236C136.391 16.236 136.004 16.0848 135.725 15.7824C135.444 15.48 135.305 14.9712 135.305 14.2572V11.4048H134.478V10.4628H135.305V9.42599L136.537 9.05399V10.4616H137.922V11.4048H137.923Z" fill="white"/>
<path d="M144.581 16.1196H143.322V12.9036C143.322 11.8896 142.943 11.382 142.183 11.382C141.6 11.382 141.202 11.676 140.983 12.264C140.946 12.3876 140.924 12.5388 140.924 12.7164V16.1184H139.668V7.86719H140.924V11.2764H140.949C141.345 10.656 141.912 10.3464 142.648 10.3464C143.169 10.3464 143.599 10.5168 143.941 10.8588C144.367 11.2848 144.581 11.9184 144.581 12.756V16.1196Z" fill="white"/>
<path d="M151.448 13.0236C151.448 13.2492 151.432 13.4388 151.402 13.5936H147.63C147.647 14.1528 147.827 14.5788 148.176 14.874C148.495 15.138 148.907 15.27 149.411 15.27C149.969 15.27 150.478 15.1812 150.936 15.0024L151.133 15.876C150.596 16.1088 149.965 16.2252 149.234 16.2252C148.359 16.2252 147.669 15.9672 147.169 15.4512C146.668 14.9352 146.419 14.2428 146.419 13.374C146.419 12.5208 146.651 11.8104 147.118 11.244C147.605 10.6392 148.264 10.3368 149.095 10.3368C149.909 10.3368 150.527 10.6392 150.944 11.244C151.282 11.724 151.448 12.318 151.448 13.0236ZM150.248 12.6984C150.258 12.3252 150.175 12.0036 150.005 11.7324C149.786 11.3832 149.454 11.208 149.004 11.208C148.594 11.208 148.259 11.3784 148.003 11.7204C147.795 11.9928 147.671 12.318 147.63 12.6984H150.248Z" fill="white"/>
<rect x="0.5" y="0.5" width="173" height="47" rx="23.5" stroke="white"/>
</svg>
