<svg width="174" height="48" viewBox="0 0 174 48" fill="none" xmlns="http://www.w3.org/2000/svg">
<rect x="0.5" y="0.5" width="173" height="47" rx="23.5" fill="#18181B"/>
<path d="M62.9039 12.288C62.9243 12.7281 62.8551 13.1678 62.7004 13.5804C62.5457 13.9929 62.3087 14.3698 62.0039 14.688C61.6636 15.0415 61.2526 15.3193 60.7978 15.5033C60.3429 15.6873 59.8543 15.7734 59.3639 15.756C58.6199 15.7501 57.8942 15.5249 57.2776 15.1084C56.6611 14.6919 56.1811 14.1027 55.898 13.4147C55.6148 12.7266 55.541 11.9703 55.6858 11.2405C55.8306 10.5107 56.1875 9.83981 56.7119 9.31197C57.0566 8.96011 57.4698 8.68272 57.9259 8.49695C58.3821 8.31119 58.8715 8.221 59.3639 8.23197C59.8713 8.23028 60.3735 8.33237 60.8399 8.53197C61.2742 8.70712 61.6607 8.98264 61.9679 9.33597L61.3319 9.97197C61.0924 9.68708 60.79 9.4618 60.4484 9.31394C60.1068 9.16607 59.7356 9.09966 59.3639 9.11997C58.9891 9.11813 58.6178 9.192 58.2722 9.33716C57.9266 9.48231 57.6139 9.69576 57.3528 9.9647C57.0917 10.2336 56.8876 10.5525 56.7527 10.9023C56.6179 11.252 56.555 11.6254 56.5679 12C56.5601 12.5593 56.7181 13.1085 57.0219 13.5782C57.3258 14.0479 57.762 14.417 58.2755 14.6391C58.7889 14.8612 59.3566 14.9262 59.907 14.826C60.4574 14.7257 60.9657 14.4648 61.3679 14.076C61.7372 13.6758 61.9502 13.1562 61.9679 12.612H59.3639V11.748H62.8559C62.888 11.9262 62.904 12.1069 62.9039 12.288Z" fill="white" stroke="white" stroke-width="0.2" stroke-miterlimit="10"/>
<path d="M68.4 9.28809H65.16V11.5681H68.1119V12.4321H65.16V14.7121H68.4V15.6001H64.2V8.40009H68.4V9.28809Z" fill="white" stroke="white" stroke-width="0.2" stroke-miterlimit="10"/>
<path d="M72.3361 15.6001H71.4121V9.28809H69.3961V8.40009H74.4001V9.28809H72.3361V15.6001Z" fill="white" stroke="white" stroke-width="0.2" stroke-miterlimit="10"/>
<path d="M77.9281 15.6001V8.40009H78.8521V15.6001H77.9281Z" fill="white" stroke="white" stroke-width="0.2" stroke-miterlimit="10"/>
<path d="M82.9562 15.6001H82.0322V9.28809H80.0162V8.40009H84.9602V9.28809H82.9562V15.6001Z" fill="white" stroke="white" stroke-width="0.2" stroke-miterlimit="10"/>
<path d="M94.332 14.6639C93.6305 15.3615 92.6813 15.7531 91.692 15.7531C90.7026 15.7531 89.7535 15.3615 89.052 14.6639C88.3701 13.9421 87.9902 12.9868 87.9902 11.9939C87.9902 11.001 88.3701 10.0457 89.052 9.32392C89.3978 8.97562 89.8091 8.69917 90.2622 8.51053C90.7152 8.32188 91.2012 8.22476 91.692 8.22476C92.1828 8.22476 92.6687 8.32188 93.1218 8.51053C93.5749 8.69917 93.9862 8.97562 94.332 9.32392C95.0166 10.0443 95.3983 11.0001 95.3983 11.9939C95.3983 12.9877 95.0166 13.9435 94.332 14.6639ZM89.736 14.0639C90.2555 14.5813 90.9588 14.8717 91.692 14.8717C92.4252 14.8717 93.1285 14.5813 93.648 14.0639C94.1607 13.4987 94.4447 12.763 94.4447 11.9999C94.4447 11.2369 94.1607 10.5011 93.648 9.93592C93.1285 9.41858 92.4252 9.12811 91.692 9.12811C90.9588 9.12811 90.2555 9.41858 89.736 9.93592C89.2233 10.5011 88.9393 11.2369 88.9393 11.9999C88.9393 12.763 89.2233 13.4987 89.736 14.0639Z" fill="white" stroke="white" stroke-width="0.2" stroke-miterlimit="10"/>
<path d="M96.696 15.6001V8.40009H97.824L101.328 14.0041V12.6121V8.40009H102.252V15.6001H101.292L97.632 9.73209V11.1241V15.6001H96.696Z" fill="white" stroke="white" stroke-width="0.2" stroke-miterlimit="10"/>
<path d="M87.7681 26.1C86.7604 26.1048 85.7768 26.4079 84.9412 26.9712C84.1057 27.5344 83.4558 28.3326 83.0734 29.2649C82.6911 30.1972 82.5935 31.2219 82.793 32.2096C82.9925 33.1973 83.4801 34.1038 84.1943 34.8147C84.9085 35.5255 85.8173 36.0089 86.8059 36.2037C87.7945 36.3986 88.8188 36.2962 89.7493 35.9095C90.6798 35.5228 91.4749 34.8691 92.0342 34.0309C92.5935 33.1927 92.8921 32.2077 92.8921 31.2C92.9019 30.5255 92.7758 29.856 92.5215 29.2312C92.2671 28.6065 91.8897 28.0393 91.4116 27.5634C90.9335 27.0876 90.3645 26.7128 89.7386 26.4614C89.1126 26.21 88.4425 26.0871 87.7681 26.1ZM87.7681 34.296C87.1484 34.3394 86.53 34.1953 85.9932 33.8825C85.4565 33.5697 85.0263 33.1027 84.7585 32.5421C84.4907 31.9816 84.3977 31.3535 84.4917 30.7394C84.5856 30.1253 84.8621 29.5537 85.2852 29.0989C85.7083 28.644 86.2585 28.327 86.8642 28.1889C87.4699 28.0509 88.1031 28.0983 88.6815 28.3249C89.2599 28.5515 89.7568 28.9469 90.1075 29.4597C90.4582 29.9724 90.6466 30.5788 90.6481 31.2C90.6674 31.5936 90.6077 31.9871 90.4725 32.3573C90.3374 32.7275 90.1295 33.0669 89.861 33.3554C89.5926 33.644 89.2691 33.8759 88.9097 34.0374C88.5502 34.1989 88.1621 34.2869 87.7681 34.296ZM76.5961 26.1C75.5879 26.1024 74.603 26.4035 73.7659 26.9653C72.9288 27.5272 72.277 28.3245 71.8929 29.2566C71.5087 30.1887 71.4094 31.2138 71.6075 32.2023C71.8057 33.1908 72.2923 34.0984 73.0061 34.8105C73.7198 35.5225 74.6285 36.0071 75.6175 36.2029C76.6065 36.3987 77.6313 36.297 78.5625 35.9106C79.4937 35.5243 80.2895 34.8706 80.8494 34.0322C81.4093 33.1937 81.7081 32.2082 81.7081 31.2C81.7178 30.5255 81.5918 29.856 81.3375 29.2312C81.0831 28.6065 80.7057 28.0393 80.2276 27.5634C79.7495 27.0876 79.1805 26.7128 78.5546 26.4614C77.9286 26.21 77.2585 26.0871 76.5841 26.1H76.5961ZM76.5961 34.296C75.9761 34.3418 75.3566 34.1999 74.8184 33.8887C74.2802 33.5775 73.8482 33.1115 73.5785 32.5513C73.3088 31.9912 73.2141 31.3628 73.3065 30.748C73.399 30.1332 73.6744 29.5605 74.0968 29.1044C74.5193 28.6484 75.0693 28.3301 75.6753 28.1909C76.2812 28.0518 76.915 28.0983 77.4941 28.3244C78.0732 28.5506 78.5708 28.9458 78.9222 29.4587C79.2736 29.9715 79.4624 30.5783 79.4641 31.2C79.4834 31.5936 79.4237 31.9871 79.2885 32.3573C79.1534 32.7275 78.9455 33.0669 78.677 33.3554C78.4086 33.644 78.0851 33.8759 77.7257 34.0374C77.3662 34.1989 76.9781 34.2869 76.5841 34.296H76.5961ZM63.2881 27.672V29.832H68.4721C68.3908 30.8494 67.9679 31.8094 67.2721 32.556C66.7534 33.0843 66.1299 33.4982 65.4417 33.771C64.7535 34.0438 64.0158 34.1695 63.2761 34.14C61.7484 34.14 60.2833 33.5332 59.2031 32.4529C58.1229 31.3727 57.5161 29.9077 57.5161 28.38C57.5161 26.8524 58.1229 25.3873 59.2031 24.3071C60.2833 23.2269 61.7484 22.62 63.2761 22.62C64.7374 22.5962 66.1486 23.1529 67.2001 24.168L68.7241 22.644C68.0142 21.9252 67.1674 21.3563 66.2336 20.9708C65.2999 20.5854 64.2982 20.3913 63.2881 20.4C62.2213 20.3585 61.1571 20.5328 60.1592 20.9124C59.1614 21.292 58.2504 21.8691 57.481 22.6092C56.7115 23.3493 56.0994 24.2371 55.6813 25.2194C55.2631 26.2018 55.0476 27.2584 55.0476 28.326C55.0476 29.3936 55.2631 30.4502 55.6813 31.4326C56.0994 32.4149 56.7115 33.3027 57.481 34.0428C58.2504 34.7829 59.1614 35.36 60.1592 35.7397C61.1571 36.1193 62.2213 36.2935 63.2881 36.252C64.3152 36.2984 65.3404 36.1243 66.2946 35.7414C67.2488 35.3585 68.11 34.7756 68.8201 34.032C70.0773 32.6507 70.7485 30.8349 70.6921 28.968C70.6959 28.5132 70.6558 28.0591 70.5721 27.612L63.2881 27.672ZM117.66 29.352C117.347 28.4313 116.762 27.6274 115.982 27.0466C115.202 26.4659 114.264 26.1358 113.292 26.1C112.636 26.0987 111.986 26.2321 111.383 26.4919C110.78 26.7516 110.237 27.1323 109.787 27.6103C109.337 28.0882 108.99 28.6534 108.768 29.2709C108.545 29.8883 108.451 30.5449 108.492 31.2C108.477 31.8707 108.598 32.5375 108.847 33.1604C109.096 33.7834 109.468 34.3499 109.941 34.8259C110.413 35.3019 110.977 35.6778 111.598 35.9311C112.219 36.1844 112.885 36.3098 113.556 36.3C114.395 36.3045 115.223 36.1008 115.964 35.7071C116.706 35.3134 117.338 34.742 117.804 34.044L116.064 32.844C115.804 33.277 115.437 33.6351 114.997 33.8833C114.557 34.1315 114.061 34.2613 113.556 34.26C113.036 34.2798 112.523 34.1428 112.082 33.8667C111.641 33.5906 111.293 33.1883 111.084 32.712L117.912 29.892L117.66 29.352ZM110.7 31.056C110.676 30.6848 110.726 30.3126 110.847 29.9609C110.968 29.6093 111.159 29.2855 111.407 29.0083C111.655 28.7312 111.956 28.5063 112.292 28.3469C112.628 28.1875 112.992 28.0968 113.364 28.08C113.751 28.0545 114.137 28.1433 114.474 28.3353C114.811 28.5273 115.085 28.8141 115.26 29.16L110.7 31.056ZM105.156 36H107.4V21H105.156V36ZM101.484 27.24H101.4C101.062 26.8619 100.648 26.5595 100.184 26.3527C99.7211 26.1459 99.2194 26.0393 98.7121 26.04C97.4007 26.1036 96.164 26.6693 95.2584 27.6199C94.3528 28.5705 93.8477 29.8331 93.8477 31.146C93.8477 32.4589 94.3528 33.7215 95.2584 34.6721C96.164 35.6227 97.4007 36.1884 98.7121 36.252C99.2206 36.2606 99.7248 36.1576 100.189 35.9502C100.654 35.7429 101.067 35.4363 101.4 35.052H101.472V35.784C101.472 37.74 100.428 38.784 98.7481 38.784C98.1885 38.7709 97.6455 38.5916 97.1882 38.2689C96.7309 37.9463 96.38 37.4948 96.1801 36.972L94.2241 37.788C94.5923 38.6836 95.2196 39.4489 96.0257 39.9855C96.8317 40.5222 97.7797 40.8058 98.7481 40.8C101.376 40.8 103.548 39.252 103.548 35.484V26.4H101.484V27.24ZM98.9161 34.296C98.142 34.2278 97.4216 33.8721 96.8968 33.299C96.372 32.7259 96.0809 31.9771 96.0809 31.2C96.0809 30.423 96.372 29.6741 96.8968 29.101C97.4216 28.5279 98.142 28.1722 98.9161 28.104C99.2999 28.1237 99.6758 28.22 100.022 28.3873C100.368 28.5545 100.677 28.7893 100.931 29.0778C101.185 29.3663 101.378 29.7027 101.5 30.0672C101.622 30.4317 101.669 30.8168 101.64 31.2C101.673 31.5848 101.627 31.9723 101.506 32.339C101.385 32.7057 101.19 33.044 100.934 33.3334C100.679 33.6228 100.367 33.8573 100.018 34.0228C99.6689 34.1882 99.29 34.2812 98.9041 34.296H98.9161ZM128.172 21H122.808V36H125.052V30.312H128.184C128.824 30.358 129.466 30.2717 130.07 30.0585C130.675 29.8453 131.23 29.5098 131.699 29.073C132.168 28.6362 132.543 28.1073 132.799 27.5194C133.054 26.9315 133.187 26.2972 133.187 25.656C133.187 25.0148 133.054 24.3805 132.799 23.7926C132.543 23.2047 132.168 22.6759 131.699 22.239C131.23 21.8022 130.675 21.4667 130.07 21.2535C129.466 21.0404 128.824 20.9541 128.184 21H128.172ZM128.172 28.2H125.04V23.088H128.22C128.903 23.088 129.557 23.3592 130.04 23.8419C130.523 24.3246 130.794 24.9793 130.794 25.662C130.794 26.3447 130.523 26.9994 130.04 27.4821C129.557 27.9648 128.903 28.236 128.22 28.236L128.172 28.2ZM142.008 26.04C141.191 25.9912 140.378 26.1821 139.668 26.5893C138.958 26.9965 138.382 27.6022 138.012 28.332L140.004 29.16C140.2 28.798 140.498 28.501 140.86 28.305C141.222 28.1089 141.634 28.0225 142.044 28.056C142.329 28.0227 142.618 28.0465 142.893 28.126C143.169 28.2055 143.426 28.339 143.649 28.5189C143.873 28.6987 144.058 28.9212 144.194 29.1735C144.331 29.4257 144.416 29.7026 144.444 29.988V30.144C143.723 29.7624 142.92 29.5646 142.104 29.568C139.956 29.568 137.784 30.768 137.784 32.94C137.805 33.4031 137.919 33.8573 138.119 34.2757C138.319 34.694 138.6 35.0681 138.947 35.3758C139.294 35.6834 139.699 35.9184 140.138 36.0669C140.577 36.2153 141.042 36.2742 141.504 36.24C142.069 36.2806 142.635 36.1683 143.142 35.9149C143.648 35.6616 144.077 35.2764 144.384 34.8H144.456V36H146.616V30.228C146.616 27.6 144.624 26.076 142.068 26.076L142.008 26.04ZM141.732 34.26C141 34.26 139.98 33.888 139.98 32.988C139.98 31.788 141.252 31.392 142.38 31.392C143.093 31.3744 143.797 31.5485 144.42 31.896C144.345 32.5457 144.038 33.1464 143.555 33.5874C143.072 34.0284 142.446 34.2801 141.792 34.296L141.732 34.26ZM154.488 26.4L151.92 32.904H151.848L149.184 26.4H146.784L150.78 35.496L148.5 40.548H150.84L156.984 26.4H154.488ZM134.316 36H136.56V21H134.316V36Z" fill="white"/>
<path d="M18.5281 9.04805C18.137 9.51738 17.9396 10.1182 17.9761 10.7281V37.2721C17.9396 37.8819 18.137 38.4827 18.5281 38.952L18.6121 39.036L33.4801 24.18V23.8321L18.6121 8.96405L18.5281 9.04805Z" fill="url(#paint0_linear_514_206)"/>
<path d="M38.3997 29.1359L33.4797 24.1799V23.8319L38.3997 18.8639L38.5077 18.9239L44.3997 22.2719C46.0797 23.2199 46.0797 24.7799 44.3997 25.7399L38.5317 29.0759L38.3997 29.1359Z" fill="url(#paint1_linear_514_206)"/>
<path d="M38.5439 29.064L33.48 24L18.528 38.952C18.8704 39.253 19.3072 39.425 19.763 39.4381C20.2187 39.4513 20.6647 39.3048 21.024 39.024L38.556 29.064" fill="url(#paint2_linear_514_206)"/>
<path d="M38.5442 18.9361L21.0122 8.97614C20.653 8.69536 20.207 8.54889 19.7513 8.56203C19.2955 8.57518 18.8587 8.74712 18.5162 9.04815L33.4802 24.0001L38.5442 18.9361Z" fill="url(#paint3_linear_514_206)"/>
<path opacity="0.2" d="M38.4 28.9561L21.012 38.8561C20.6655 39.1151 20.2445 39.2551 19.812 39.2551C19.3794 39.2551 18.9584 39.1151 18.612 38.8561L18.528 38.9401L18.612 39.0241C18.9576 39.285 19.3789 39.4261 19.812 39.4261C20.245 39.4261 20.6663 39.285 21.012 39.0241L38.544 29.0641L38.4 28.9561Z" fill="black"/>
<path opacity="0.12" d="M18.5281 38.784C18.137 38.3147 17.9396 37.7139 17.9761 37.104V37.284C17.9396 37.8939 18.137 38.4947 18.5281 38.964L18.6121 38.88L18.5281 38.784Z" fill="black"/>
<path opacity="0.12" d="M44.4 25.56L38.4 28.956L38.508 29.064L44.4 25.728C44.7343 25.571 45.0213 25.3285 45.232 25.0251C45.4427 24.7217 45.5696 24.3681 45.6 24C45.5325 24.3344 45.3893 24.649 45.1813 24.9194C44.9732 25.1898 44.706 25.409 44.4 25.56Z" fill="black"/>
<path opacity="0.25" d="M21.0121 9.14414L44.4001 22.4401C44.7061 22.5912 44.9733 22.8103 45.1813 23.0807C45.3894 23.3512 45.5326 23.6657 45.6001 24.0001C45.5697 23.632 45.4428 23.2784 45.2321 22.975C45.0214 22.6716 44.7344 22.4292 44.4001 22.2721L21.0121 8.97614C19.3321 8.02814 17.9641 8.82014 17.9641 10.7401V10.9201C18.0001 8.98814 19.3441 8.19614 21.0121 9.14414Z" fill="white"/>
<rect x="0.5" y="0.5" width="173" height="47" rx="23.5" stroke="white"/>
<defs>
<linearGradient id="paint0_linear_514_206" x1="32.1601" y1="10.4521" x2="12.0241" y2="30.5881" gradientUnits="userSpaceOnUse">
<stop stop-color="#00A0FF"/>
<stop offset="0.01" stop-color="#00A1FF"/>
<stop offset="0.26" stop-color="#00BEFF"/>
<stop offset="0.51" stop-color="#00D2FF"/>
<stop offset="0.76" stop-color="#00DFFF"/>
<stop offset="1" stop-color="#00E3FF"/>
</linearGradient>
<linearGradient id="paint1_linear_514_206" x1="46.5957" y1="23.9999" x2="17.5677" y2="23.9999" gradientUnits="userSpaceOnUse">
<stop stop-color="#FFE000"/>
<stop offset="0.41" stop-color="#FFBD00"/>
<stop offset="0.78" stop-color="#FFA500"/>
<stop offset="1" stop-color="#FF9C00"/>
</linearGradient>
<linearGradient id="paint2_linear_514_206" x1="35.796" y1="26.76" x2="8.48395" y2="54.06" gradientUnits="userSpaceOnUse">
<stop stop-color="#FF3A44"/>
<stop offset="1" stop-color="#C31162"/>
</linearGradient>
<linearGradient id="paint3_linear_514_206" x1="14.7602" y1="0.216144" x2="26.9522" y2="12.4081" gradientUnits="userSpaceOnUse">
<stop stop-color="#32A071"/>
<stop offset="0.07" stop-color="#2DA771"/>
<stop offset="0.48" stop-color="#15CF74"/>
<stop offset="0.8" stop-color="#06E775"/>
<stop offset="1" stop-color="#00F076"/>
</linearGradient>
</defs>
</svg>
