<svg width="138" height="38" viewBox="0 0 138 38" fill="none" xmlns="http://www.w3.org/2000/svg">
<rect x="0.395833" y="0.395833" width="136.958" height="37.2083" rx="18.6042" fill="#18181B"/>
<path d="M33.3716 18.7948C33.3441 15.7329 35.8787 14.2433 35.9946 14.174C34.5591 12.0811 32.3342 11.7952 31.5524 11.7724C29.6837 11.5757 27.8711 12.8905 26.9192 12.8905C25.9483 12.8905 24.4825 11.7914 22.9026 11.8237C20.8696 11.855 18.9677 13.0321 17.9246 14.8599C15.7719 18.5867 17.3774 24.0635 19.4399 27.0759C20.4716 28.5513 21.6771 30.1986 23.2551 30.1406C24.7988 30.077 25.3755 29.1565 27.2384 29.1565C29.0843 29.1565 29.6258 30.1406 31.2351 30.1036C32.8919 30.077 33.935 28.6216 34.9306 27.133C36.1228 25.442 36.6016 23.7766 36.6206 23.6911C36.5817 23.6778 33.403 22.4647 33.3716 18.7948Z" fill="white"/>
<path d="M30.3317 9.79071C31.162 8.75236 31.7301 7.33971 31.5724 5.90616C30.3706 5.95936 28.8677 6.73741 28.0023 7.75296C27.2366 8.64786 26.5526 10.1147 26.7293 11.4941C28.0792 11.5948 29.4653 10.8129 30.3317 9.79071Z" fill="white"/>
<path d="M55.7128 29.9288H53.5554L52.3736 26.2152H48.2658L47.14 29.9288H45.0396L49.1094 17.2862H51.6231L55.7128 29.9288ZM52.0173 24.6572L50.9486 21.356C50.8355 21.0187 50.6237 20.2245 50.3111 18.9743H50.2731C50.1487 19.512 49.9482 20.3062 49.6727 21.356L48.623 24.6572H52.0173Z" fill="white"/>
<path d="M66.1789 25.2586C66.1789 26.809 65.7599 28.0345 64.922 28.9341C64.1715 29.735 63.2396 30.1349 62.1271 30.1349C60.9263 30.1349 60.0637 29.7036 59.5384 28.841H59.5004V33.6433H57.475V23.8136C57.475 22.8389 57.4493 21.8386 57.3999 20.8126H59.1812L59.2942 22.2575H59.3322C60.0077 21.1688 61.0327 20.6254 62.4083 20.6254C63.4837 20.6254 64.3815 21.0501 65.0997 21.9003C65.8198 22.7515 66.1789 23.8706 66.1789 25.2586ZM64.1155 25.3327C64.1155 24.4454 63.916 23.7139 63.5151 23.1382C63.0771 22.5378 62.4891 22.2376 61.7519 22.2376C61.2522 22.2376 60.7981 22.4048 60.3924 22.7344C59.9858 23.0669 59.7198 23.5011 59.5954 24.0388C59.5327 24.2896 59.5013 24.4948 59.5013 24.6563V26.1763C59.5013 26.8394 59.7046 27.3989 60.1112 27.8559C60.5178 28.3128 61.046 28.5408 61.6958 28.5408C62.4587 28.5408 63.0524 28.2463 63.4771 27.6592C63.9027 27.0712 64.1155 26.296 64.1155 25.3327Z" fill="white"/>
<path d="M76.664 25.2586C76.664 26.809 76.2451 28.0345 75.4062 28.9341C74.6567 29.735 73.7247 30.1349 72.6122 30.1349C71.4114 30.1349 70.5488 29.7036 70.0244 28.841H69.9864V33.6433H67.961V23.8136C67.961 22.8389 67.9354 21.8386 67.886 20.8126H69.6672L69.7803 22.2575H69.8183C70.4928 21.1688 71.5178 20.6254 72.8944 20.6254C73.9689 20.6254 74.8666 21.0501 75.5867 21.9003C76.304 22.7515 76.664 23.8706 76.664 25.2586ZM74.6006 25.3327C74.6006 24.4454 74.4001 23.7139 73.9992 23.1382C73.5613 22.5378 72.9751 22.2376 72.237 22.2376C71.7363 22.2376 71.2832 22.4048 70.8766 22.7344C70.47 23.0669 70.2049 23.5011 70.0805 24.0388C70.0187 24.2896 69.9864 24.4948 69.9864 24.6563V26.1763C69.9864 26.8394 70.1897 27.3989 70.5944 27.8559C71.001 28.3119 71.5292 28.5408 72.1809 28.5408C72.9438 28.5408 73.5376 28.2463 73.9622 27.6592C74.3878 27.0712 74.6006 26.296 74.6006 25.3327Z" fill="white"/>
<path d="M88.3871 26.3834C88.3871 27.4588 88.0138 28.3337 87.2642 29.0092C86.4406 29.7473 85.2939 30.1159 83.8205 30.1159C82.4601 30.1159 81.3695 29.8537 80.5439 29.3284L81.0132 27.6402C81.9024 28.1779 82.8781 28.4477 83.9411 28.4477C84.704 28.4477 85.2977 28.2748 85.7243 27.9309C86.1489 27.587 86.3608 27.1253 86.3608 26.5496C86.3608 26.0366 86.186 25.6044 85.8354 25.2538C85.4868 24.9033 84.9044 24.5775 84.0912 24.2763C81.8777 23.4508 80.772 22.2414 80.772 20.6511C80.772 19.6118 81.1595 18.7597 81.9357 18.0966C82.709 17.4325 83.7407 17.101 85.0308 17.101C86.1812 17.101 87.1369 17.3014 87.8998 17.7014L87.3934 19.3525C86.6809 18.9649 85.8753 18.7711 84.9738 18.7711C84.2613 18.7711 83.7046 18.9468 83.3056 19.2964C82.9683 19.609 82.7992 19.9899 82.7992 20.4412C82.7992 20.9409 82.9921 21.3541 83.3797 21.679C83.7169 21.9792 84.3297 22.3041 85.2189 22.6547C86.3066 23.0926 87.1056 23.6047 87.6195 24.1917C88.1316 24.7769 88.3871 25.5094 88.3871 26.3834Z" fill="white"/>
<path d="M95.0835 22.3326H92.851V26.7586C92.851 27.8844 93.2443 28.4468 94.0328 28.4468C94.3948 28.4468 94.695 28.4154 94.9325 28.3527L94.9885 29.8908C94.5895 30.0399 94.0642 30.115 93.4134 30.115C92.6135 30.115 91.9884 29.8708 91.5372 29.3835C91.0878 28.8952 90.8617 28.0763 90.8617 26.9258V22.3307H89.5317V20.8107H90.8617V19.1415L92.851 18.5411V20.8107H95.0835V22.3326Z" fill="white"/>
<path d="M105.156 25.2957C105.156 26.6969 104.756 27.8474 103.956 28.747C103.117 29.6733 102.003 30.135 100.615 30.135C99.2779 30.135 98.2129 29.6913 97.4187 28.804C96.6245 27.9167 96.2274 26.7967 96.2274 25.4467C96.2274 24.0341 96.6359 22.877 97.4558 21.9773C98.2737 21.0767 99.3776 20.6264 100.766 20.6264C102.103 20.6264 103.18 21.0701 103.992 21.9583C104.769 22.82 105.156 23.9324 105.156 25.2957ZM103.055 25.3612C103.055 24.5205 102.876 23.7994 102.512 23.1981C102.087 22.4704 101.48 22.1075 100.693 22.1075C99.8792 22.1075 99.2608 22.4713 98.8361 23.1981C98.4723 23.8004 98.2927 24.5328 98.2927 25.3992C98.2927 26.24 98.4723 26.961 98.8361 27.5614C99.2741 28.2891 99.8859 28.652 100.675 28.652C101.449 28.652 102.056 28.2815 102.494 27.5424C102.867 26.9297 103.055 26.201 103.055 25.3612Z" fill="white"/>
<path d="M111.74 22.5938C111.539 22.5568 111.326 22.5378 111.102 22.5378C110.389 22.5378 109.838 22.8066 109.45 23.3453C109.113 23.8203 108.944 24.4207 108.944 25.1455V29.9288H106.92L106.939 23.6835C106.939 22.6328 106.913 21.6761 106.863 20.8135H108.627L108.701 22.5577H108.757C108.971 21.9583 109.308 21.4757 109.77 21.1137C110.221 20.7879 110.708 20.6254 111.234 20.6254C111.421 20.6254 111.59 20.6387 111.74 20.6625V22.5938Z" fill="white"/>
<path d="M120.798 24.9394C120.798 25.3023 120.775 25.6082 120.724 25.858H114.648C114.672 26.7586 114.965 27.4474 115.53 27.9224C116.042 28.347 116.704 28.5598 117.517 28.5598C118.417 28.5598 119.237 28.4164 119.976 28.1285L120.293 29.5345C119.43 29.9107 118.412 30.0979 117.237 30.0979C115.823 30.0979 114.714 29.6818 113.906 28.8505C113.1 28.0193 112.697 26.903 112.697 25.5027C112.697 24.1281 113.072 22.9833 113.823 22.0704C114.61 21.0957 115.673 20.6083 117.011 20.6083C118.324 20.6083 119.319 21.0957 119.995 22.0704C120.529 22.8446 120.798 23.8022 120.798 24.9394ZM118.867 24.414C118.88 23.8136 118.748 23.2949 118.474 22.857C118.123 22.2936 117.584 22.0124 116.86 22.0124C116.197 22.0124 115.659 22.287 115.247 22.838C114.91 23.2759 114.71 23.8013 114.648 24.4131H118.867V24.414Z" fill="white"/>
<path d="M51.3476 9.50854C51.3476 10.6267 51.0123 11.4684 50.3425 12.0336C49.7222 12.5552 48.8406 12.8164 47.6987 12.8164C47.1325 12.8164 46.648 12.7917 46.2423 12.7423V6.63289C46.7715 6.54739 47.3415 6.50369 47.9571 6.50369C49.0448 6.50369 49.8647 6.74024 50.4176 7.21334C51.037 7.74819 51.3476 8.51294 51.3476 9.50854ZM50.2979 9.53609C50.2979 8.81124 50.106 8.25549 49.7222 7.86789C49.3384 7.48124 48.7779 7.28744 48.0397 7.28744C47.7262 7.28744 47.4593 7.30834 47.2379 7.35204V11.9966C47.3605 12.0156 47.5847 12.0241 47.9105 12.0241C48.6724 12.0241 49.2605 11.8123 49.6747 11.3886C50.0889 10.9649 50.2979 10.3474 50.2979 9.53609Z" fill="white"/>
<path d="M56.9136 10.4851C56.9136 11.1739 56.717 11.7382 56.3237 12.1809C55.9114 12.6359 55.3651 12.863 54.683 12.863C54.0256 12.863 53.5022 12.6454 53.1117 12.2084C52.7222 11.7724 52.5275 11.2223 52.5275 10.5592C52.5275 9.86573 52.7279 9.29668 53.1307 8.85493C53.5335 8.41318 54.075 8.19183 54.7571 8.19183C55.4145 8.19183 55.9427 8.40938 56.3427 8.84543C56.7227 9.26913 56.9136 9.81633 56.9136 10.4851ZM55.881 10.5174C55.881 10.1042 55.7917 9.74983 55.614 9.45438C55.405 9.09718 55.1077 8.91858 54.721 8.91858C54.3211 8.91858 54.0171 9.09718 53.8081 9.45438C53.6295 9.74983 53.5411 10.1099 53.5411 10.5355C53.5411 10.9487 53.6304 11.3031 53.8081 11.5985C54.0237 11.9557 54.3239 12.1343 54.7115 12.1343C55.0915 12.1343 55.3898 11.9529 55.6045 11.589C55.7888 11.2879 55.881 10.9307 55.881 10.5174Z" fill="white"/>
<path d="M64.3768 8.28302L62.9756 12.7613H62.0636L61.4831 10.8167C61.3359 10.3312 61.2162 9.84862 61.1231 9.36982H61.105C61.0186 9.86192 60.8989 10.3436 60.745 10.8167L60.1284 12.7613H59.206L57.8883 8.28302H58.9115L59.4178 10.412C59.5404 10.9155 59.6411 11.3952 59.7218 11.8493H59.7399C59.814 11.475 59.9365 10.9981 60.1094 10.4215L60.745 8.28397H61.5563L62.1652 10.3759C62.3125 10.886 62.4322 11.3772 62.5243 11.8503H62.5519C62.6193 11.3895 62.721 10.8984 62.8559 10.3759L63.3993 8.28397H64.3768V8.28302Z" fill="white"/>
<path d="M69.5382 12.7613H68.5426V10.1963C68.5426 9.40595 68.2424 9.01075 67.6401 9.01075C67.3446 9.01075 67.1062 9.11905 66.9209 9.3366C66.7376 9.55415 66.6445 9.81065 66.6445 10.1042V12.7604H65.6489V9.5627C65.6489 9.1694 65.6365 8.74285 65.6128 8.28115H66.4877L66.5343 8.9813H66.5618C66.6777 8.76375 66.8506 8.5842 67.0777 8.44075C67.3475 8.27355 67.6496 8.189 67.9802 8.189C68.3982 8.189 68.7459 8.3239 69.0223 8.59465C69.3662 8.9262 69.5382 9.42115 69.5382 10.0785V12.7613Z" fill="white"/>
<path d="M72.2836 12.7613H71.2889V6.22818H72.2836V12.7613Z" fill="white"/>
<path d="M78.1452 10.4851C78.1452 11.1739 77.9485 11.7382 77.5552 12.1809C77.1429 12.6359 76.5957 12.863 75.9146 12.863C75.2562 12.863 74.7328 12.6454 74.3433 12.2084C73.9538 11.7724 73.759 11.2223 73.759 10.5592C73.759 9.86573 73.9595 9.29668 74.3623 8.85493C74.7651 8.41318 75.3066 8.19183 75.9877 8.19183C76.6461 8.19183 77.1733 8.40938 77.5742 8.84543C77.9542 9.26913 78.1452 9.81633 78.1452 10.4851ZM77.1116 10.5174C77.1116 10.1042 77.0223 9.74983 76.8446 9.45438C76.6366 9.09718 76.3383 8.91858 75.9526 8.91858C75.5517 8.91858 75.2477 9.09718 75.0396 9.45438C74.861 9.74983 74.7727 10.1099 74.7727 10.5355C74.7727 10.9487 74.862 11.3031 75.0396 11.5985C75.2553 11.9557 75.5555 12.1343 75.9431 12.1343C76.3231 12.1343 76.6204 11.9529 76.8351 11.589C77.0204 11.2879 77.1116 10.9307 77.1116 10.5174Z" fill="white"/>
<path d="M82.9636 12.7613H82.0697L81.9956 12.2455H81.968C81.6621 12.6568 81.2261 12.863 80.6599 12.863C80.2371 12.863 79.8951 12.7271 79.6377 12.4573C79.404 12.2122 79.2871 11.9073 79.2871 11.5453C79.2871 10.9981 79.5151 10.5811 79.974 10.2923C80.4319 10.0035 81.076 9.86193 81.9053 9.86858V9.78498C81.9053 9.19503 81.5956 8.90053 80.9753 8.90053C80.5335 8.90053 80.144 9.01168 79.8077 9.23208L79.6054 8.57848C80.0215 8.32103 80.5354 8.19183 81.1415 8.19183C82.3119 8.19183 82.899 8.80933 82.899 10.0443V11.6935C82.899 12.141 82.9209 12.4972 82.9636 12.7613ZM81.93 11.2223V10.5317C80.8318 10.5127 80.2827 10.8138 80.2827 11.4342C80.2827 11.6679 80.3454 11.8427 80.4737 11.9595C80.6019 12.0764 80.7653 12.1343 80.9601 12.1343C81.1786 12.1343 81.3828 12.065 81.569 11.9272C81.7562 11.7885 81.8711 11.6128 81.9139 11.3971C81.9243 11.3487 81.93 11.2898 81.93 11.2223Z" fill="white"/>
<path d="M88.6207 12.7613H87.7372L87.6906 12.0422H87.6631C87.3809 12.5894 86.9002 12.863 86.2248 12.863C85.6852 12.863 85.2358 12.6511 84.8796 12.2274C84.5233 11.8037 84.3457 11.2537 84.3457 10.5782C84.3457 9.85338 84.5386 9.26628 84.9262 8.81788C85.3014 8.39988 85.7612 8.19088 86.3084 8.19088C86.9097 8.19088 87.3306 8.39323 87.57 8.79888H87.589V6.22818H88.5855V11.5548C88.5855 11.9909 88.5969 12.3927 88.6207 12.7613ZM87.589 10.8727V10.126C87.589 9.99683 87.5795 9.89233 87.5614 9.81253C87.5054 9.57313 87.3847 9.37173 87.2014 9.20928C87.0161 9.04683 86.7929 8.96513 86.5354 8.96513C86.164 8.96513 85.8733 9.11238 85.6595 9.40783C85.4477 9.70328 85.3403 10.0804 85.3403 10.5412C85.3403 10.9839 85.442 11.343 85.6462 11.6194C85.8619 11.9139 86.1526 12.0612 86.5164 12.0612C86.8432 12.0612 87.1045 11.9386 87.303 11.6926C87.4949 11.4655 87.589 11.1919 87.589 10.8727Z" fill="white"/>
<path d="M97.1358 10.4851C97.1358 11.1739 96.9391 11.7382 96.5458 12.1809C96.1335 12.6359 95.5882 12.863 94.9052 12.863C94.2487 12.863 93.7253 12.6454 93.3339 12.2084C92.9444 11.7724 92.7496 11.2223 92.7496 10.5592C92.7496 9.86573 92.9501 9.29668 93.3529 8.85493C93.7557 8.41318 94.2972 8.19183 94.9802 8.19183C95.6367 8.19183 96.1658 8.40938 96.5648 8.84543C96.9448 9.26913 97.1358 9.81633 97.1358 10.4851ZM96.1041 10.5174C96.1041 10.1042 96.0148 9.74983 95.8371 9.45438C95.6272 9.09718 95.3308 8.91858 94.9432 8.91858C94.5442 8.91858 94.2402 9.09718 94.0302 9.45438C93.8516 9.74983 93.7633 10.1099 93.7633 10.5355C93.7633 10.9487 93.8526 11.3031 94.0302 11.5985C94.2459 11.9557 94.5461 12.1343 94.9337 12.1343C95.3137 12.1343 95.6129 11.9529 95.8276 11.589C96.011 11.2879 96.1041 10.9307 96.1041 10.5174Z" fill="white"/>
<path d="M102.489 12.7613H101.494V10.1963C101.494 9.40595 101.194 9.01075 100.591 9.01075C100.295 9.01075 100.057 9.11905 99.8726 9.3366C99.6883 9.55415 99.5961 9.81065 99.5961 10.1042V12.7604H98.5996V9.5627C98.5996 9.1694 98.5882 8.74285 98.5645 8.28115H99.4384L99.485 8.9813H99.5125C99.6294 8.76375 99.8023 8.5842 100.028 8.44075C100.299 8.27355 100.6 8.189 100.932 8.189C101.349 8.189 101.697 8.3239 101.973 8.59465C102.318 8.9262 102.489 9.42115 102.489 10.0785V12.7613Z" fill="white"/>
<path d="M109.189 9.02881H108.093V11.2043C108.093 11.7572 108.288 12.0337 108.673 12.0337C108.852 12.0337 109 12.0185 109.117 11.9871L109.143 12.7424C108.946 12.8165 108.688 12.8535 108.369 12.8535C107.976 12.8535 107.67 12.7338 107.449 12.4944C107.226 12.255 107.116 11.8522 107.116 11.287V9.02881H106.462V8.28306H107.116V7.46226L108.092 7.16776V8.28211H109.188V9.02881H109.189Z" fill="white"/>
<path d="M114.46 12.7613H113.463V10.2153C113.463 9.41258 113.163 9.01073 112.562 9.01073C112.1 9.01073 111.785 9.24348 111.612 9.70898C111.582 9.80683 111.565 9.92653 111.565 10.0671V12.7604H110.571V6.22818H111.565V8.92713H111.584C111.898 8.43598 112.347 8.19088 112.929 8.19088C113.342 8.19088 113.683 8.32578 113.954 8.59653C114.291 8.93378 114.46 9.43538 114.46 10.0985V12.7613Z" fill="white"/>
<path d="M119.897 10.3103C119.897 10.4889 119.883 10.639 119.86 10.7616H116.874C116.887 11.2043 117.03 11.5415 117.306 11.7752C117.559 11.9842 117.885 12.0887 118.284 12.0887C118.725 12.0887 119.128 12.0184 119.491 11.8769L119.647 12.5685C119.222 12.7528 118.723 12.8449 118.144 12.8449C117.45 12.8449 116.904 12.6407 116.509 12.2322C116.112 11.8237 115.915 11.2755 115.915 10.5877C115.915 9.91229 116.099 9.34989 116.468 8.90149C116.854 8.42269 117.375 8.18329 118.034 8.18329C118.678 8.18329 119.167 8.42269 119.498 8.90149C119.765 9.28149 119.897 9.75174 119.897 10.3103ZM118.947 10.0529C118.954 9.75744 118.889 9.50284 118.754 9.28814C118.581 9.01169 118.318 8.87299 117.962 8.87299C117.637 8.87299 117.372 9.00789 117.169 9.27864C117.004 9.49429 116.906 9.75174 116.874 10.0529H118.947Z" fill="white"/>
<rect x="0.395833" y="0.395833" width="136.958" height="37.2083" rx="18.6042" stroke="white" stroke-width="0.791667"/>
</svg>
