<svg width="139" height="38" viewBox="0 0 139 38" fill="none" xmlns="http://www.w3.org/2000/svg">
<rect x="1.14583" y="0.395833" width="136.958" height="37.2083" rx="18.6042" fill="#18181B"/>
<path d="M50.5489 9.728C50.5651 10.0765 50.5102 10.4245 50.3878 10.7512C50.2653 11.0778 50.0777 11.3761 49.8364 11.628C49.567 11.9079 49.2416 12.1278 48.8815 12.2735C48.5214 12.4192 48.1346 12.4873 47.7464 12.4735C47.1574 12.4689 46.5829 12.2906 46.0948 11.9608C45.6066 11.6311 45.2267 11.1647 45.0025 10.62C44.7784 10.0753 44.7199 9.47651 44.8346 8.89874C44.9492 8.32097 45.2318 7.78987 45.6469 7.372C45.9198 7.09345 46.2469 6.87384 46.608 6.72678C46.9691 6.57971 47.3566 6.50832 47.7464 6.517C48.148 6.51567 48.5457 6.59649 48.9149 6.7545C49.2587 6.89316 49.5647 7.11128 49.8079 7.391L49.3044 7.8945C49.1148 7.66897 48.8753 7.49062 48.6049 7.37356C48.3346 7.2565 48.0406 7.20393 47.7464 7.22C47.4497 7.21855 47.1557 7.27703 46.8821 7.39194C46.6085 7.50686 46.361 7.67584 46.1543 7.88875C45.9476 8.10166 45.786 8.35412 45.6792 8.63099C45.5724 8.90786 45.5227 9.20344 45.5329 9.5C45.5267 9.94283 45.6518 10.3776 45.8923 10.7494C46.1329 11.1212 46.4782 11.4135 46.8847 11.5893C47.2912 11.7651 47.7406 11.8166 48.1763 11.7372C48.6121 11.6579 49.0145 11.4513 49.3329 11.1435C49.6252 10.8267 49.7938 10.4153 49.8079 9.9845H47.7464V9.3005H50.5109C50.5363 9.44159 50.549 9.58466 50.5489 9.728Z" fill="white" stroke="white" stroke-width="0.158333" stroke-miterlimit="10"/>
<path d="M54.9 7.35305H52.335V9.15805H54.6719V9.84206H52.335V11.6471H54.9V12.3501H51.575V6.65005H54.9V7.35305Z" fill="white" stroke="white" stroke-width="0.158333" stroke-miterlimit="10"/>
<path d="M58.0161 12.3501H57.2846V7.35305H55.6886V6.65005H59.6501V7.35305H58.0161V12.3501Z" fill="white" stroke="white" stroke-width="0.158333" stroke-miterlimit="10"/>
<path d="M62.4431 12.3501V6.65005H63.1746V12.3501H62.4431Z" fill="white" stroke="white" stroke-width="0.158333" stroke-miterlimit="10"/>
<path d="M66.4237 12.3501H65.6922V7.35305H64.0962V6.65005H68.0102V7.35305H66.4237V12.3501Z" fill="white" stroke="white" stroke-width="0.158333" stroke-miterlimit="10"/>
<path d="M75.4295 11.6089C74.8741 12.1612 74.1227 12.4712 73.3395 12.4712C72.5563 12.4712 71.8049 12.1612 71.2495 11.6089C70.7097 11.0375 70.4089 10.2812 70.4089 9.49518C70.4089 8.70911 70.7097 7.95283 71.2495 7.38143C71.5232 7.10569 71.8488 6.88684 72.2075 6.73749C72.5662 6.58815 72.9509 6.51126 73.3395 6.51126C73.728 6.51126 74.1127 6.58815 74.4714 6.73749C74.8301 6.88684 75.1558 7.10569 75.4295 7.38143C75.9714 7.95174 76.2736 8.70843 76.2736 9.49518C76.2736 10.2819 75.9714 11.0386 75.4295 11.6089ZM71.791 11.1339C72.2023 11.5435 72.7591 11.7734 73.3395 11.7734C73.9199 11.7734 74.4767 11.5435 74.888 11.1339C75.2939 10.6865 75.5187 10.104 75.5187 9.49993C75.5187 8.89583 75.2939 8.31336 74.888 7.86593C74.4767 7.45636 73.9199 7.22642 73.3395 7.22642C72.7591 7.22642 72.2023 7.45636 71.791 7.86593C71.3851 8.31336 71.1603 8.89583 71.1603 9.49993C71.1603 10.104 71.3851 10.6865 71.791 11.1339Z" fill="white" stroke="white" stroke-width="0.158333" stroke-miterlimit="10"/>
<path d="M77.301 12.3501V6.65005H78.194L80.968 11.0866V9.98456V6.65005H81.6995V12.3501H80.9395L78.042 7.70456V8.80656V12.3501H77.301Z" fill="white" stroke="white" stroke-width="0.158333" stroke-miterlimit="10"/>
<path d="M70.233 20.6625C69.4353 20.6663 68.6566 20.9062 67.9951 21.3522C67.3337 21.7981 66.8191 22.43 66.5165 23.168C66.2138 23.9061 66.1365 24.7173 66.2945 25.4993C66.4524 26.2812 66.8384 26.9989 67.4038 27.5616C67.9692 28.1244 68.6887 28.507 69.4713 28.6613C70.254 28.8155 71.0648 28.7345 71.8015 28.4283C72.5381 28.1222 73.1676 27.6047 73.6104 26.9411C74.0532 26.2776 74.2895 25.4977 74.2895 24.7C74.2973 24.1661 74.1975 23.636 73.9962 23.1414C73.7948 22.6468 73.496 22.1978 73.1175 21.821C72.739 21.4443 72.2886 21.1476 71.793 20.9486C71.2975 20.7495 70.767 20.6523 70.233 20.6625ZM70.233 27.151C69.7424 27.1853 69.2529 27.0713 68.828 26.8236C68.4031 26.576 68.0625 26.2063 67.8505 25.7625C67.6385 25.3188 67.5649 24.8215 67.6392 24.3354C67.7136 23.8492 67.9325 23.3967 68.2675 23.0366C68.6024 22.6765 69.038 22.4255 69.5175 22.3163C69.997 22.207 70.4983 22.2445 70.9562 22.4239C71.4141 22.6033 71.8074 22.9163 72.0851 23.3222C72.3627 23.7282 72.5118 24.2082 72.513 24.7C72.5283 25.0116 72.4811 25.3231 72.3741 25.6162C72.2671 25.9093 72.1025 26.1779 71.89 26.4064C71.6775 26.6348 71.4214 26.8184 71.1368 26.9463C70.8523 27.0742 70.545 27.1438 70.233 27.151ZM61.3885 20.6625C60.5904 20.6644 59.8107 20.9028 59.148 21.3476C58.4853 21.7924 57.9693 22.4236 57.6652 23.1615C57.361 23.8994 57.2824 24.7109 57.4393 25.4935C57.5961 26.2761 57.9814 26.9946 58.5465 27.5583C59.1115 28.122 59.8309 28.5056 60.6139 28.6606C61.3968 28.8156 62.2081 28.7351 62.9453 28.4293C63.6825 28.1234 64.3125 27.6059 64.7558 26.9421C65.199 26.2784 65.4355 25.4982 65.4355 24.7C65.4433 24.1661 65.3435 23.636 65.1422 23.1414C64.9408 22.6468 64.642 22.1978 64.2635 21.821C63.885 21.4443 63.4346 21.1476 62.939 20.9486C62.4435 20.7495 61.913 20.6523 61.379 20.6625H61.3885ZM61.3885 27.151C60.8977 27.1873 60.4073 27.0749 59.9812 26.8285C59.5552 26.5822 59.2131 26.2133 58.9996 25.7698C58.7861 25.3263 58.7111 24.8289 58.7843 24.3422C58.8575 23.8555 59.0755 23.4021 59.41 23.041C59.7445 22.68 60.1799 22.428 60.6596 22.3178C61.1393 22.2077 61.641 22.2445 62.0995 22.4235C62.5579 22.6025 62.9519 22.9154 63.2301 23.3214C63.5082 23.7275 63.6577 24.2078 63.659 24.7C63.6743 25.0116 63.6271 25.3231 63.5201 25.6162C63.4131 25.9093 63.2485 26.1779 63.036 26.4064C62.8235 26.6348 62.5674 26.8184 62.2828 26.9463C61.9983 27.0742 61.691 27.1438 61.379 27.151H61.3885ZM50.853 21.907V23.617H54.957C54.8927 24.4224 54.5579 25.1824 54.007 25.7735C53.5965 26.1917 53.1029 26.5194 52.558 26.7353C52.0132 26.9513 51.4292 27.0508 50.8435 27.0275C49.6342 27.0275 48.4743 26.5471 47.6191 25.6919C46.764 24.8368 46.2835 23.6769 46.2835 22.4675C46.2835 21.2581 46.764 20.0983 47.6191 19.2431C48.4743 18.3879 49.6342 17.9075 50.8435 17.9075C52.0005 17.8886 53.1176 18.3294 53.95 19.133L55.1565 17.9265C54.5946 17.3575 53.9242 16.9071 53.1849 16.6019C52.4457 16.2967 51.6527 16.1431 50.853 16.15C50.0085 16.1171 49.166 16.2551 48.376 16.5556C47.5861 16.8562 46.8649 17.3131 46.2558 17.899C45.6466 18.4849 45.162 19.1877 44.831 19.9654C44.5 20.7431 44.3293 21.5796 44.3293 22.4248C44.3293 23.27 44.5 24.1065 44.831 24.8841C45.162 25.6618 45.6466 26.3646 46.2558 26.9506C46.8649 27.5365 47.5861 27.9934 48.376 28.2939C49.166 28.5944 50.0085 28.7324 50.853 28.6995C51.6662 28.7363 52.4778 28.5984 53.2332 28.2953C53.9886 27.9921 54.6704 27.5307 55.2325 26.942C56.2278 25.8485 56.7592 24.411 56.7145 22.933C56.7176 22.573 56.6858 22.2134 56.6195 21.8595L50.853 21.907ZM93.8975 23.237C93.6498 22.5081 93.1865 21.8717 92.569 21.4119C91.9515 20.9522 91.2089 20.6908 90.4395 20.6625C89.9199 20.6615 89.4056 20.7671 88.9283 20.9727C88.4511 21.1784 88.0211 21.4797 87.665 21.8581C87.3088 22.2365 87.034 22.684 86.8577 23.1728C86.6813 23.6616 86.6071 24.1814 86.6395 24.7C86.628 25.231 86.7236 25.7588 86.9206 26.252C87.1176 26.7452 87.412 27.1936 87.7862 27.5705C88.1604 27.9474 88.6068 28.245 89.0986 28.4455C89.5904 28.646 90.1175 28.7453 90.6485 28.7375C91.3131 28.7411 91.9681 28.5798 92.555 28.2681C93.1419 27.9564 93.6424 27.5041 94.0115 26.9515L92.634 26.0015C92.4285 26.3443 92.1374 26.6278 91.7894 26.8243C91.4413 27.0208 91.0482 27.1235 90.6485 27.1225C90.237 27.1382 89.8303 27.0297 89.4813 26.8111C89.1323 26.5926 88.8571 26.2741 88.6915 25.897L94.097 23.6645L93.8975 23.237ZM88.3875 24.586C88.3683 24.2922 88.4079 23.9974 88.5039 23.7191C88.6 23.4407 88.7507 23.1843 88.9471 22.9649C89.1435 22.7455 89.3817 22.5675 89.6477 22.4413C89.9138 22.3151 90.2024 22.2433 90.4965 22.23C90.803 22.2098 91.1086 22.2801 91.3755 22.4321C91.6423 22.5841 91.8586 22.8111 91.9975 23.085L88.3875 24.586ZM83.9985 28.5H85.775V16.625H83.9985V28.5ZM81.0915 21.565H81.025C80.7573 21.2657 80.4293 21.0263 80.0626 20.8626C79.6959 20.6989 79.2987 20.6145 78.897 20.615C77.8589 20.6654 76.8799 21.1132 76.1629 21.8658C75.446 22.6183 75.0461 23.6179 75.0461 24.6573C75.0461 25.6967 75.446 26.6962 76.1629 27.4488C76.8799 28.2013 77.8589 28.6492 78.897 28.6995C79.2996 28.7063 79.6988 28.6247 80.0664 28.4606C80.4341 28.2965 80.7613 28.0537 81.025 27.7495H81.082V28.329C81.082 29.8775 80.2555 30.704 78.9255 30.704C78.4826 30.6936 78.0527 30.5517 77.6907 30.2962C77.3286 30.0408 77.0508 29.6834 76.8925 29.2695L75.344 29.9155C75.6355 30.6246 76.1322 31.2304 76.7703 31.6552C77.4084 32.0801 78.1589 32.3046 78.9255 32.3C81.006 32.3 82.7255 31.0745 82.7255 28.0915V20.9H81.0915V21.565ZM79.0585 27.151C78.4457 27.097 77.8754 26.8154 77.4599 26.3617C77.0445 25.908 76.8141 25.3152 76.8141 24.7C76.8141 24.0848 77.0445 23.492 77.4599 23.0383C77.8754 22.5846 78.4457 22.303 79.0585 22.249C79.3624 22.2646 79.66 22.3408 79.9339 22.4732C80.2078 22.6056 80.4525 22.7915 80.6535 23.0199C80.8544 23.2483 81.0076 23.5147 81.1041 23.8032C81.2005 24.0917 81.2383 24.3967 81.215 24.7C81.241 25.0047 81.2048 25.3114 81.1088 25.6017C81.0128 25.892 80.8589 26.1598 80.6564 26.3889C80.4539 26.618 80.2071 26.8037 79.9308 26.9347C79.6545 27.0657 79.3546 27.1393 79.049 27.151H79.0585ZM102.22 16.625H97.973V28.5H99.7495V23.997H102.229C102.735 24.0334 103.244 23.9651 103.722 23.7963C104.201 23.6275 104.64 23.362 105.012 23.0161C105.383 22.6703 105.68 22.2516 105.882 21.7862C106.085 21.3208 106.189 20.8186 106.189 20.311C106.189 19.8034 106.085 19.3012 105.882 18.8358C105.68 18.3704 105.383 17.9517 105.012 17.6059C104.64 17.2601 104.201 16.9945 103.722 16.8257C103.244 16.657 102.735 16.5886 102.229 16.625H102.22ZM102.22 22.325H99.74V18.278H102.258C102.798 18.278 103.316 18.4927 103.698 18.8749C104.081 19.257 104.295 19.7753 104.295 20.3158C104.295 20.8562 104.081 21.3745 103.698 21.7567C103.316 22.1388 102.798 22.3535 102.258 22.3535L102.22 22.325ZM113.173 20.615C112.526 20.5764 111.882 20.7275 111.32 21.0498C110.758 21.3722 110.303 21.8517 110.01 22.4295L111.587 23.085C111.742 22.7984 111.977 22.5633 112.264 22.4081C112.551 22.2529 112.877 22.1844 113.202 22.211C113.427 22.1847 113.656 22.2035 113.874 22.2664C114.092 22.3293 114.295 22.4351 114.472 22.5774C114.649 22.7198 114.796 22.896 114.904 23.0957C115.012 23.2954 115.079 23.5146 115.102 23.7405V23.864C114.531 23.5619 113.895 23.4053 113.249 23.408C111.549 23.408 109.829 24.358 109.829 26.0775C109.846 26.4442 109.936 26.8037 110.094 27.1349C110.252 27.4661 110.475 27.7623 110.75 28.0058C111.024 28.2494 111.345 28.4354 111.693 28.5529C112.04 28.6705 112.408 28.7171 112.774 28.69C113.221 28.7221 113.669 28.6332 114.07 28.4327C114.472 28.2321 114.811 27.9272 115.054 27.55H115.111V28.5H116.821V23.9305C116.821 21.85 115.244 20.6435 113.221 20.6435L113.173 20.615ZM112.955 27.1225C112.375 27.1225 111.568 26.828 111.568 26.1155C111.568 25.1655 112.575 24.852 113.468 24.852C114.032 24.8381 114.59 24.9759 115.083 25.251C115.023 25.7653 114.78 26.2409 114.398 26.59C114.015 26.9392 113.52 27.1384 113.002 27.151L112.955 27.1225ZM123.053 20.9L121.02 26.049H120.963L118.854 20.9H116.954L120.118 28.101L118.313 32.1005H120.165L125.029 20.9H123.053ZM107.084 28.5H108.86V16.625H107.084V28.5Z" fill="white"/>
<path d="M15.4181 7.16303C15.1084 7.53458 14.9521 8.01023 14.9811 8.49303V29.507C14.9521 29.9898 15.1084 30.4655 15.4181 30.837L15.4846 30.9035L27.2551 19.1425V18.867L15.4846 7.09653L15.4181 7.16303Z" fill="url(#paint0_linear_514_206)"/>
<path d="M31.1498 23.0659L27.2548 19.1424V18.8669L31.1498 14.9339L31.2353 14.9814L35.8998 17.6319C37.2298 18.3824 37.2298 19.6174 35.8998 20.3774L31.2543 23.0184L31.1498 23.0659Z" fill="url(#paint1_linear_514_206)"/>
<path d="M31.264 23.009L27.255 19L15.418 30.837C15.6891 31.0753 16.0349 31.2114 16.3957 31.2218C16.7565 31.2322 17.1096 31.1163 17.394 30.894L31.2735 23.009" fill="url(#paint2_linear_514_206)"/>
<path d="M31.2642 14.9911L17.3847 7.1061C17.1003 6.88381 16.7472 6.76786 16.3864 6.77826C16.0256 6.78867 15.6798 6.92479 15.4087 7.1631L27.2552 19.0001L31.2642 14.9911Z" fill="url(#paint3_linear_514_206)"/>
<path opacity="0.2" d="M31.15 22.9236L17.3845 30.7611C17.1102 30.9661 16.7769 31.077 16.4345 31.077C16.092 31.077 15.7587 30.9661 15.4845 30.7611L15.418 30.8276L15.4845 30.8941C15.7581 31.1006 16.0916 31.2123 16.4345 31.2123C16.7773 31.2123 17.1108 31.1006 17.3845 30.8941L31.264 23.0091L31.15 22.9236Z" fill="black"/>
<path opacity="0.12" d="M15.4181 30.704C15.1084 30.3325 14.9521 29.8568 14.9811 29.374V29.5165C14.9521 29.9993 15.1084 30.475 15.4181 30.8465L15.4846 30.78L15.4181 30.704Z" fill="black"/>
<path opacity="0.12" d="M35.9 20.235L31.15 22.9235L31.2355 23.009L35.9 20.368C36.1647 20.2437 36.3919 20.0517 36.5587 19.8115C36.7255 19.5714 36.826 19.2914 36.85 19C36.7966 19.2648 36.6832 19.5138 36.5185 19.7279C36.3538 19.942 36.1422 20.1154 35.9 20.235Z" fill="black"/>
<path opacity="0.25" d="M17.3846 7.23909L35.9001 17.7651C36.1423 17.8846 36.3538 18.0581 36.5185 18.2722C36.6832 18.4863 36.7966 18.7353 36.8501 19.0001C36.826 18.7087 36.7255 18.4287 36.5587 18.1886C36.3919 17.9484 36.1647 17.7564 35.9001 17.6321L17.3846 7.10609C16.0546 6.35559 14.9716 6.98259 14.9716 8.50259V8.64509C15.0001 7.11559 16.0641 6.48859 17.3846 7.23909Z" fill="white"/>
<rect x="1.14583" y="0.395833" width="136.958" height="37.2083" rx="18.6042" stroke="white" stroke-width="0.791667"/>
<defs>
<linearGradient id="paint0_linear_514_206" x1="26.2101" y1="8.27453" x2="10.2691" y2="24.2155" gradientUnits="userSpaceOnUse">
<stop stop-color="#00A0FF"/>
<stop offset="0.01" stop-color="#00A1FF"/>
<stop offset="0.26" stop-color="#00BEFF"/>
<stop offset="0.51" stop-color="#00D2FF"/>
<stop offset="0.76" stop-color="#00DFFF"/>
<stop offset="1" stop-color="#00E3FF"/>
</linearGradient>
<linearGradient id="paint1_linear_514_206" x1="37.6383" y1="18.9999" x2="14.6578" y2="18.9999" gradientUnits="userSpaceOnUse">
<stop stop-color="#FFE000"/>
<stop offset="0.41" stop-color="#FFBD00"/>
<stop offset="0.78" stop-color="#FFA500"/>
<stop offset="1" stop-color="#FF9C00"/>
</linearGradient>
<linearGradient id="paint2_linear_514_206" x1="29.0885" y1="21.185" x2="7.46647" y2="42.7975" gradientUnits="userSpaceOnUse">
<stop stop-color="#FF3A44"/>
<stop offset="1" stop-color="#C31162"/>
</linearGradient>
<linearGradient id="paint3_linear_514_206" x1="12.4352" y1="0.171102" x2="22.0872" y2="9.8231" gradientUnits="userSpaceOnUse">
<stop stop-color="#32A071"/>
<stop offset="0.07" stop-color="#2DA771"/>
<stop offset="0.48" stop-color="#15CF74"/>
<stop offset="0.8" stop-color="#06E775"/>
<stop offset="1" stop-color="#00F076"/>
</linearGradient>
</defs>
</svg>
